<svg width="400" height="400" viewBox="0 0 400 400" fill="none" xmlns="http://www.w3.org/2000/svg">
  <rect width="400" height="400" fill="#F3F4F6"/>
  <path d="M120 140C120 128.954 128.954 120 140 120H260C271.046 120 280 128.954 280 140V260C280 271.046 271.046 280 260 280H140C128.954 280 120 271.046 120 260V140Z" fill="#E5E7EB"/>
  <path d="M150 170L180 200L220 160L250 190V230H150V170Z" fill="#D1D5DB"/>
  <circle cx="180" cy="190" r="15" fill="#9CA3AF"/>
  <path d="M160 240H240V250H160V240Z" fill="#9CA3AF"/>
  <path d="M160 255H200V265H160V255Z" fill="#9CA3AF"/>
  <text x="200" y="320" text-anchor="middle" font-family="Arial, sans-serif" font-size="16" fill="#6B7280">No Image Available</text>
</svg> 